<?xml version="1.0" standalone="no"?><!DOCTYPE svg PUBLIC "-//W3C//DTD SVG 1.1//EN" "http://www.w3.org/Graphics/SVG/1.1/DTD/svg11.dtd"><svg t="1754029166299" class="icon" viewBox="0 0 1024 1024" version="1.1" xmlns="http://www.w3.org/2000/svg" p-id="4151" xmlns:xlink="http://www.w3.org/1999/xlink" width="200" height="200"><path d="M757.461333 597.333333a96 96 0 0 1 96 96v38.613334a160 160 0 0 1-55.765333 121.429333C730.88 910.72 635.306667 938.666667 512 938.666667c-123.306667 0-218.794667-27.989333-285.482667-85.333334a160 160 0 0 1-55.722666-121.301333v-38.741333A96 96 0 0 1 266.794667 597.333333h490.666666z m0 64h-490.666666a32 32 0 0 0-32 32v38.741334c0 27.946667 12.202667 54.528 33.450666 72.789333C321.92 850.986667 402.773333 874.752 512 874.752c109.226667 0 190.208-23.765333 244.010667-69.973333a96 96 0 0 0 33.450666-72.789334v-38.656a32 32 0 0 0-32-32zM507.648 85.674667L512 85.333333a32 32 0 0 1 31.701333 27.648l0.298667 4.352V149.333333h149.333333a96 96 0 0 1 96 96v192.213334a96 96 0 0 1-96 96h-362.666666a96 96 0 0 1-96-96V245.333333A96 96 0 0 1 330.666667 149.333333h149.333333v-31.957333a32 32 0 0 1 27.648-31.701333L512 85.333333l-4.352 0.298667zM693.333333 213.333333h-362.666666a32 32 0 0 0-32 32v192.213334c0 17.664 14.336 32 32 32h362.666666a32 32 0 0 0 32-32V245.333333a32 32 0 0 0-32-32z m-277.333333 64a53.333333 53.333333 0 1 1 0 106.666667 53.333333 53.333333 0 0 1 0-106.666667z m191.658667 0a53.333333 53.333333 0 1 1 0 106.624 53.333333 53.333333 0 0 1 0-106.624z" p-id="4152"></path></svg>