<?xml version="1.0" standalone="no"?><!DOCTYPE svg PUBLIC "-//W3C//DTD SVG 1.1//EN" "http://www.w3.org/Graphics/SVG/1.1/DTD/svg11.dtd"><svg t="1754029254920" class="icon" viewBox="0 0 1024 1024" version="1.1" xmlns="http://www.w3.org/2000/svg" p-id="6189" xmlns:xlink="http://www.w3.org/1999/xlink" width="200" height="200"><path d="M960 981.333333H64a21.333333 21.333333 0 0 1-21.333333-21.333333V64a21.333333 21.333333 0 0 1 42.666666 0v874.666667h874.666667a21.333333 21.333333 0 0 1 0 42.666666zM234.666667 640a21.333333 21.333333 0 1 0 21.333333 21.333333 21.333333 21.333333 0 0 0-21.333333-21.333333m0-42.666667a64 64 0 1 1-64 64 64 64 0 0 1 64-64z m298.666666-256a21.333333 21.333333 0 1 0 21.333334 21.333334 21.333333 21.333333 0 0 0-21.333334-21.333334m0-42.666666a64 64 0 1 1-64 64 64 64 0 0 1 64-64zM448 554.666667a21.333333 21.333333 0 1 0 21.333333 21.333333 21.333333 21.333333 0 0 0-21.333333-21.333333m0-42.666667a64 64 0 1 1-64 64 64 64 0 0 1 64-64z m256 0a21.333333 21.333333 0 1 0 21.333333 21.333333 21.333333 21.333333 0 0 0-21.333333-21.333333m0-42.666667a64 64 0 1 1-64 64 64 64 0 0 1 64-64zM277.333333 256a21.333333 21.333333 0 1 0 21.333334 21.333333 21.333333 21.333333 0 0 0-21.333334-21.333333m0-42.666667a64 64 0 1 1-64 64 64 64 0 0 1 64-64z m490.666667 512a21.333333 21.333333 0 1 0 21.333333 21.333334 21.333333 21.333333 0 0 0-21.333333-21.333334m0-42.666666a64 64 0 1 1-64 64 64 64 0 0 1 64-64z m106.666667-384a21.333333 21.333333 0 1 0 21.333333 21.333333 21.333333 21.333333 0 0 0-21.333333-21.333333m0-42.666667a64 64 0 1 1-64 64 64 64 0 0 1 64-64z"  p-id="6190"></path></svg>