<?xml version="1.0" standalone="no"?><!DOCTYPE svg PUBLIC "-//W3C//DTD SVG 1.1//EN" "http://www.w3.org/Graphics/SVG/1.1/DTD/svg11.dtd"><svg t="1754449762413" class="icon" viewBox="0 0 1024 1024" version="1.1" xmlns="http://www.w3.org/2000/svg" p-id="14678" xmlns:xlink="http://www.w3.org/1999/xlink" width="200" height="200"><path d="M865.0752 511.197867a42.615467 42.615467 0 0 0-42.666667-41.335467H554.939733V382.805333h218.794667c47.069867 0 85.333333-38.263467 85.333333-85.333333V128c0-47.069867-38.263467-85.333333-85.333333-85.333333H259.072c-47.069867 0-85.333333 38.263467-85.333333 85.333333v169.472c0 47.069867 38.263467 85.333333 85.333333 85.333333h210.5344v87.057067H201.728a42.786133 42.786133 0 0 0-42.666667 41.335467v151.330133h85.333334v-107.332267h535.330133v107.349334h85.333333v-151.3472zM259.072 129.3312h514.6624v169.472H259.072v-169.472z" fill="#0079D3" p-id="14679" transform="scale(0.7) translate(150, 150)"></path><path d="M346.6752 641.194667a85.333333 85.333333 0 0 1 85.333333 85.333333v169.472c0 47.069867-38.280533 85.333333-85.333333 85.333333H85.333333c-47.069867 0-85.333333-38.263467-85.333333-85.333333v-169.472c0-47.069867 38.263467-85.333333 85.333333-85.333333z m0 86.664533H85.333333v169.472h261.341867v-169.472z" fill="#00B7C9" p-id="14680" transform="scale(0.7) translate(150, 150)"></path><path d="M937.0624 641.194667a85.333333 85.333333 0 0 1 85.333333 85.333333v169.472c0 47.069867-38.263467 85.333333-85.333333 85.333333H675.7376c-47.069867 0-85.333333-38.263467-85.333333-85.333333v-169.472c0-47.069867 38.263467-85.333333 85.333333-85.333333z m0 86.664533H675.7376v169.472h261.3248v-169.472z" fill="#00B7C9" p-id="14681" transform="scale(0.7) translate(150, 150)"></path></svg>